<svg width="40" height="40" viewBox="0 0 40 40" fill="none" xmlns="http://www.w3.org/2000/svg">
<path d="M19.9821 4.99988C19.6568 5.00464 19.3462 5.13601 19.1162 5.36609L14.1162 10.3661C13.9962 10.4813 13.9005 10.6192 13.8345 10.7719C13.7685 10.9246 13.7337 11.0888 13.732 11.2551C13.7303 11.4214 13.7618 11.5864 13.8246 11.7404C13.8875 11.8943 13.9805 12.0342 14.0981 12.1518C14.2157 12.2694 14.3555 12.3624 14.5095 12.4252C14.6635 12.4881 14.8284 12.5196 14.9947 12.5179C15.161 12.5162 15.3253 12.4814 15.478 12.4154C15.6306 12.3494 15.7686 12.2536 15.8838 12.1337L18.75 9.26746V27.0832C18.7477 27.2488 18.7783 27.4133 18.84 27.567C18.9018 27.7207 18.9935 27.8606 19.1098 27.9786C19.2261 28.0965 19.3647 28.1902 19.5175 28.2542C19.6703 28.3181 19.8343 28.351 20 28.351C20.1657 28.351 20.3297 28.3181 20.4825 28.2542C20.6353 28.1902 20.7739 28.0965 20.8902 27.9786C21.0065 27.8606 21.0982 27.7207 21.16 27.567C21.2217 27.4133 21.2523 27.2488 21.25 27.0832V9.26746L24.1162 12.1337C24.2314 12.2536 24.3694 12.3494 24.522 12.4154C24.6747 12.4814 24.839 12.5162 25.0053 12.5179C25.1716 12.5196 25.3365 12.4881 25.4905 12.4252C25.6445 12.3624 25.7843 12.2694 25.9019 12.1518C26.0195 12.0342 26.1125 11.8943 26.1754 11.7404C26.2382 11.5864 26.2697 11.4214 26.268 11.2551C26.2663 11.0888 26.2315 10.9246 26.1655 10.7719C26.0995 10.6192 26.0038 10.4813 25.8838 10.3661L20.8838 5.36609C20.7656 5.24786 20.6249 5.15454 20.47 5.09164C20.3152 5.02873 20.1492 4.99753 19.9821 4.99988ZM9.58333 14.1665C7.06685 14.1665 5 16.2334 5 18.7499V30.4165C5 32.933 7.06685 34.9999 9.58333 34.9999H30.4167C32.9331 34.9999 35 32.933 35 30.4165V18.7499C35 16.2334 32.9331 14.1665 30.4167 14.1665H28.75C28.5844 14.1642 28.4199 14.1948 28.2662 14.2566C28.1125 14.3183 27.9726 14.41 27.8546 14.5263C27.7367 14.6427 27.643 14.7812 27.5791 14.9341C27.5151 15.0869 27.4822 15.2509 27.4822 15.4165C27.4822 15.5822 27.5151 15.7462 27.5791 15.899C27.643 16.0518 27.7367 16.1904 27.8546 16.3067C27.9726 16.423 28.1125 16.5148 28.2662 16.5765C28.4199 16.6383 28.5844 16.6689 28.75 16.6665H30.4167C31.5819 16.6665 32.5 17.5847 32.5 18.7499V30.4165C32.5 31.5817 31.5819 32.4999 30.4167 32.4999H9.58333C8.41815 32.4999 7.5 31.5817 7.5 30.4165V18.7499C7.5 17.5847 8.41815 16.6665 9.58333 16.6665H11.25C11.4156 16.6689 11.5801 16.6383 11.7338 16.5765C11.8875 16.5148 12.0274 16.423 12.1454 16.3067C12.2633 16.1904 12.357 16.0518 12.4209 15.899C12.4849 15.7462 12.5178 15.5822 12.5178 15.4165C12.5178 15.2509 12.4849 15.0869 12.4209 14.9341C12.357 14.7812 12.2633 14.6427 12.1454 14.5263C12.0274 14.41 11.8875 14.3183 11.7338 14.2566C11.5801 14.1948 11.4156 14.1642 11.25 14.1665H9.58333Z" fill="#0086C9"/>
</svg>
