<svg width="24" height="24" viewBox="0 0 24 24" fill="none" xmlns="http://www.w3.org/2000/svg">
<path d="M8.6712 12C8.6712 10.1591 10.164 8.6664 12.006 8.6664C13.848 8.6664 15.3416 10.1591 15.3416 12C15.3416 13.8409 13.848 15.3336 12.006 15.3336C10.164 15.3336 8.6712 13.8409 8.6712 12ZM6.86804 12C6.86804 14.836 9.1683 17.1349 12.006 17.1349C14.8437 17.1349 17.144 14.836 17.144 12C17.144 9.164 14.8437 6.86512 12.006 6.86512C9.1683 6.86512 6.86804 9.164 6.86804 12ZM16.1466 6.66152C16.1465 6.89886 16.2169 7.13089 16.3487 7.32829C16.4806 7.52568 16.6681 7.67956 16.8874 7.77047C17.1068 7.86138 17.3482 7.88524 17.5811 7.83904C17.8141 7.79283 18.0281 7.67862 18.1961 7.51087C18.3641 7.34311 18.4785 7.12934 18.5249 6.89658C18.5713 6.66382 18.5477 6.42253 18.4569 6.20322C18.3661 5.98392 18.2123 5.79644 18.0148 5.6645C17.8174 5.53257 17.5853 5.4621 17.3478 5.462H17.3474C17.029 5.46215 16.7238 5.58856 16.4987 5.81347C16.2735 6.03837 16.1469 6.34339 16.1466 6.66152ZM7.96358 20.1398C6.98803 20.0954 6.45779 19.933 6.10542 19.7958C5.63826 19.614 5.30494 19.3975 4.95449 19.0478C4.60404 18.698 4.38711 18.3652 4.20604 17.8983C4.06868 17.5463 3.90618 17.0162 3.86184 16.0413C3.81333 14.9872 3.80364 14.6706 3.80364 12.0001C3.80364 9.3296 3.81413 9.01384 3.86184 7.95888C3.90626 6.98392 4.06996 6.45488 4.20604 6.10184C4.38791 5.63496 4.60452 5.30184 4.95449 4.9516C5.30446 4.60136 5.63746 4.38456 6.10542 4.2036C6.45763 4.06632 6.98803 3.90392 7.96358 3.8596C9.01829 3.81112 9.33512 3.80144 12.006 3.80144C14.6769 3.80144 14.994 3.81192 16.0496 3.8596C17.0252 3.904 17.5545 4.0676 17.9078 4.2036C18.3749 4.38456 18.7083 4.60184 19.0587 4.9516C19.4092 5.30136 19.6253 5.63496 19.8072 6.10184C19.9445 6.45384 20.107 6.98392 20.1514 7.95888C20.1999 9.01384 20.2096 9.3296 20.2096 12.0001C20.2096 14.6706 20.1999 14.9863 20.1514 16.0413C20.1069 17.0162 19.9436 17.5462 19.8072 17.8983C19.6253 18.3652 19.4087 18.6983 19.0587 19.0478C18.7087 19.3972 18.3749 19.614 17.9078 19.7958C17.5556 19.933 17.0252 20.0954 16.0496 20.1398C14.9949 20.1882 14.6781 20.1979 12.006 20.1979C9.33392 20.1979 9.01797 20.1882 7.96358 20.1398ZM7.88073 2.06056C6.81553 2.10904 6.08765 2.27784 5.45199 2.52504C4.79368 2.78032 4.23638 3.1228 3.67949 3.67848C3.12259 4.23416 2.78079 4.792 2.52536 5.44992C2.27801 6.0856 2.10911 6.81264 2.0606 7.8772C2.01129 8.94344 2 9.28432 2 12C2 14.7157 2.01129 15.0566 2.0606 16.1228C2.10911 17.1874 2.27801 17.9144 2.52536 18.5501C2.78079 19.2076 3.12267 19.7661 3.67949 20.3215C4.2363 20.877 4.79368 21.219 5.45199 21.475C6.08885 21.7222 6.81553 21.891 7.88073 21.9394C8.94817 21.9879 9.28869 22 12.006 22C14.7233 22 15.0644 21.9887 16.1313 21.9394C17.1966 21.891 17.9239 21.7222 18.56 21.475C19.2179 21.219 19.7756 20.8772 20.3325 20.3215C20.8894 19.7658 21.2305 19.2076 21.4866 18.5501C21.734 17.9144 21.9037 17.1874 21.9514 16.1228C21.9999 15.0558 22.0112 14.7157 22.0112 12C22.0112 9.28432 21.9999 8.94344 21.9514 7.8772C21.9029 6.81256 21.734 6.0852 21.4866 5.44992C21.2305 4.7924 20.8885 4.23504 20.3325 3.67848C19.7765 3.12192 19.2179 2.78032 18.5608 2.52504C17.924 2.27784 17.1965 2.10824 16.1321 2.06056C15.0652 2.01208 14.7241 2 12.0068 2C9.28949 2 8.94817 2.01128 7.88073 2.06056Z" fill="url(#paint0_linear_317_45866)"/>
<defs>
<linearGradient id="paint0_linear_317_45866" x1="21.6266" y1="22" x2="1.62659" y2="1.9888" gradientUnits="userSpaceOnUse">
<stop stop-color="#FBE18A"/>
<stop offset="0.21" stop-color="#FCBB45"/>
<stop offset="0.38" stop-color="#F75274"/>
<stop offset="0.52" stop-color="#D53692"/>
<stop offset="0.74" stop-color="#8F39CE"/>
<stop offset="1" stop-color="#5B4FE9"/>
</linearGradient>
</defs>
</svg>
