<svg width="20" height="20" viewBox="0 0 20 20" fill="none" xmlns="http://www.w3.org/2000/svg">
<path d="M10.0011 1.66663C8.62781 1.66663 7.50109 2.79335 7.50109 4.16663H4.89529C4.85821 4.16027 4.82062 4.15727 4.78299 4.15767C4.7527 4.15846 4.72251 4.16146 4.69266 4.16663H3.12609C3.04327 4.16545 2.96104 4.18076 2.88419 4.21164C2.80733 4.24252 2.73738 4.28837 2.6784 4.34653C2.61942 4.40468 2.57258 4.47397 2.54062 4.55038C2.50865 4.6268 2.49219 4.7088 2.49219 4.79163C2.49219 4.87445 2.50865 4.95646 2.54062 5.03287C2.57258 5.10928 2.61942 5.17857 2.6784 5.23673C2.73738 5.29488 2.80733 5.34073 2.88419 5.37161C2.96104 5.4025 3.04327 5.4178 3.12609 5.41663H4.16776V16.0416C4.16776 17.2999 5.20118 18.3333 6.45942 18.3333H13.5428C14.801 18.3333 15.8344 17.2999 15.8344 16.0416V5.41663H16.8761C16.9589 5.4178 17.0411 5.4025 17.118 5.37161C17.1948 5.34073 17.2648 5.29488 17.3238 5.23673C17.3828 5.17857 17.4296 5.10928 17.4616 5.03287C17.4935 4.95646 17.51 4.87445 17.51 4.79163C17.51 4.7088 17.4935 4.6268 17.4616 4.55038C17.4296 4.47397 17.3828 4.40468 17.3238 4.34653C17.2648 4.28837 17.1948 4.24252 17.118 4.21164C17.0411 4.18076 16.9589 4.16545 16.8761 4.16663H15.312C15.2449 4.1556 15.1764 4.1556 15.1093 4.16663H12.5011C12.5011 2.79335 11.3744 1.66663 10.0011 1.66663ZM10.0011 2.91663C10.6986 2.91663 11.2511 3.46907 11.2511 4.16663H8.75109C8.75109 3.46907 9.30353 2.91663 10.0011 2.91663ZM5.41776 5.41663H14.5844V16.0416C14.5844 16.6242 14.1253 17.0833 13.5428 17.0833H6.45942C5.87683 17.0833 5.41776 16.6242 5.41776 16.0416V5.41663ZM8.53299 7.49101C8.36737 7.49359 8.20955 7.56181 8.0942 7.68068C7.97884 7.79955 7.91538 7.95934 7.91776 8.12496V14.375C7.91658 14.4578 7.93189 14.54 7.96277 14.6169C7.99365 14.6937 8.0395 14.7637 8.09766 14.8226C8.15581 14.8816 8.2251 14.9285 8.30151 14.9604C8.37792 14.9924 8.45993 15.0089 8.54276 15.0089C8.62558 15.0089 8.70759 14.9924 8.784 14.9604C8.86041 14.9285 8.9297 14.8816 8.98785 14.8226C9.04601 14.7637 9.09186 14.6937 9.12274 14.6169C9.15363 14.54 9.16893 14.4578 9.16776 14.375V8.12496C9.16896 8.04131 9.15335 7.95826 9.12186 7.88075C9.09038 7.80324 9.04365 7.73284 8.98446 7.67372C8.92526 7.6146 8.8548 7.56797 8.77725 7.53658C8.6997 7.5052 8.61664 7.4897 8.53299 7.49101ZM11.4497 7.49101C11.284 7.49359 11.1262 7.56181 11.0109 7.68068C10.8955 7.79955 10.832 7.95934 10.8344 8.12496V14.375C10.8333 14.4578 10.8486 14.54 10.8794 14.6169C10.9103 14.6937 10.9562 14.7637 11.0143 14.8226C11.0725 14.8816 11.1418 14.9285 11.2182 14.9604C11.2946 14.9924 11.3766 15.0089 11.4594 15.0089C11.5423 15.0089 11.6243 14.9924 11.7007 14.9604C11.7771 14.9285 11.8464 14.8816 11.9045 14.8226C11.9627 14.7637 12.0085 14.6937 12.0394 14.6169C12.0703 14.54 12.0856 14.4578 12.0844 14.375V8.12496C12.0856 8.04131 12.07 7.95826 12.0385 7.88075C12.007 7.80324 11.9603 7.73284 11.9011 7.67372C11.8419 7.6146 11.7715 7.56797 11.6939 7.53658C11.6164 7.5052 11.5333 7.4897 11.4497 7.49101Z" fill="#667085"/>
</svg>
