<svg width="25" height="24" viewBox="0 0 25 24" fill="none" xmlns="http://www.w3.org/2000/svg">
<path fill-rule="evenodd" clip-rule="evenodd" d="M16.3942 9.22692C17.7329 10.1786 19.3361 10.6871 20.9787 10.6809V7.42567C20.6558 7.42657 20.3337 7.392 20.0184 7.32259V9.91595C18.3721 9.91887 16.7666 9.40456 15.4284 8.44566V15.1407C15.4244 16.2393 15.1231 17.3163 14.5566 18.2575C13.99 19.1988 13.1793 19.9691 12.2104 20.487C11.2415 21.0048 10.1505 21.2507 9.05316 21.1988C7.95579 21.1468 6.89294 20.7988 5.97731 20.1918C6.82425 21.0487 7.90642 21.635 9.0868 21.8765C10.2672 22.118 11.4927 22.0037 12.6081 21.5483C13.7235 21.0928 14.6787 20.3166 15.3527 19.3179C16.0266 18.3192 16.3891 17.143 16.3942 15.9382V9.22692ZM17.5823 5.90655C16.9016 5.16864 16.4838 4.22635 16.3942 3.22638V2.80319H15.4827C15.5954 3.43882 15.8405 4.04363 16.2023 4.5783C16.564 5.11296 17.0342 5.56552 17.5823 5.90655ZM8.08781 17.6147C7.7719 17.2016 7.5783 16.7081 7.52904 16.1903C7.47979 15.6726 7.57686 15.1514 7.80922 14.6862C8.04157 14.2209 8.39987 13.8302 8.84334 13.5585C9.2868 13.2869 9.79763 13.1452 10.3177 13.1495C10.6048 13.1494 10.8902 13.1933 11.164 13.2797V9.91595C10.844 9.87356 10.5211 9.85543 10.1983 9.8617V12.4768C9.53159 12.266 8.80996 12.3139 8.17697 12.611C7.54397 12.9081 7.04598 13.4325 6.78205 14.08C6.51812 14.7276 6.50759 15.4507 6.75255 16.1056C6.99751 16.7606 7.48001 17.2993 8.10409 17.6147H8.08781Z" fill="#EE1D52"/>
<path fill-rule="evenodd" clip-rule="evenodd" d="M15.428 8.42396C16.7661 9.38286 18.3717 9.89717 20.0179 9.89425V7.30089C19.08 7.10257 18.2279 6.61487 17.5819 5.90655C17.0338 5.56552 16.5636 5.11296 16.2018 4.5783C15.8401 4.04363 15.5949 3.43882 15.4822 2.80319H13.0842V15.9382C13.0819 16.5196 12.8977 17.0857 12.5573 17.557C12.2169 18.0284 11.7375 18.3813 11.1862 18.5662C10.635 18.7512 10.0398 18.7588 9.48396 18.5882C8.92817 18.4175 8.43978 18.0771 8.08734 17.6147C7.52881 17.3328 7.08151 16.8711 6.81761 16.3039C6.55372 15.7366 6.48862 15.097 6.63281 14.4883C6.77701 13.8795 7.12209 13.3371 7.61239 12.9485C8.10268 12.5599 8.70959 12.3479 9.3352 12.3466C9.62224 12.3475 9.90752 12.3914 10.1816 12.4768V9.8617C8.99751 9.89012 7.84752 10.2637 6.87276 10.9364C5.898 11.6092 5.14089 12.552 4.69437 13.649C4.24785 14.746 4.13135 15.9495 4.35917 17.1118C4.58699 18.274 5.14922 19.3445 5.97684 20.1918C6.89266 20.8032 7.95718 21.1548 9.05702 21.209C10.1568 21.2633 11.2508 21.0182 12.2223 20.4998C13.1939 19.9815 14.0066 19.2093 14.574 18.2656C15.1414 17.3218 15.4422 16.2418 15.4443 15.1407L15.428 8.42396Z" fill="#E3E3E3"/>
<path fill-rule="evenodd" clip-rule="evenodd" d="M20.0179 7.30089L20.0182 6.60078C19.1568 6.60444 18.3123 6.36386 17.5823 5.90655C18.2267 6.61691 19.079 7.10502 20.0179 7.30089ZM15.4827 2.80319C15.4827 2.67841 15.4446 2.54797 15.4283 2.42318V2H12.1188V15.1404C12.1159 15.8762 11.8212 16.5808 11.2994 17.0996C10.7776 17.6183 10.0713 17.9089 9.3355 17.9074C8.90226 17.9096 8.47482 17.8094 8.08781 17.6147C8.44025 18.0771 8.92817 18.4175 9.48396 18.5882C10.0398 18.7588 10.635 18.7512 11.1862 18.5662C11.7375 18.3813 12.2169 18.0284 12.5573 17.557C12.8977 17.0857 13.0819 16.5196 13.0842 15.9382V2.80319H15.4827ZM10.1819 9.85605V9.11276C8.82002 8.92776 7.43566 9.20946 6.25441 9.91196C5.07316 10.6145 4.16467 11.6963 3.677 12.9813C3.18934 14.2662 3.15125 15.6784 3.56894 16.9878C3.98663 18.2971 4.83565 19.4266 5.97731 20.1918C5.15595 19.3425 4.59955 18.2723 4.37638 17.1121C4.1532 15.9519 4.27276 14.7519 4.72045 13.6586C5.16814 12.5652 5.92457 11.626 6.89733 10.9555C7.8701 10.2851 9.01708 9.91244 10.1981 9.88318L10.1819 9.85605Z" fill="#667085"/>
</svg>
