<svg width="20" height="20" viewBox="0 0 20 20" fill="none" xmlns="http://www.w3.org/2000/svg">
<path fill-rule="evenodd" clip-rule="evenodd" d="M10.0026 3.33337C10.4117 3.33337 10.7433 3.66501 10.7433 4.07411V9.2593H15.9285C16.3376 9.2593 16.6693 9.59094 16.6693 10C16.6693 10.4091 16.3376 10.7408 15.9285 10.7408H10.7433V15.926C10.7433 16.3351 10.4117 16.6667 10.0026 16.6667C9.5935 16.6667 9.26186 16.3351 9.26186 15.926V10.7408H4.07668C3.66758 10.7408 3.33594 10.4091 3.33594 10C3.33594 9.59094 3.66758 9.2593 4.07668 9.2593H9.26186V4.07411C9.26186 3.66501 9.5935 3.33337 10.0026 3.33337Z" fill="#074E9F"/>
</svg>
