<svg width="40" height="40" viewBox="0 0 40 40" fill="none" xmlns="http://www.w3.org/2000/svg">
<path d="M20.0022 3.33325C17.2556 3.33325 15.0022 5.5867 15.0022 8.33325H9.79059C9.71641 8.32054 9.64124 8.31454 9.56598 8.31535C9.5054 8.31693 9.44502 8.32291 9.38532 8.33325H6.25218C6.08654 8.33091 5.92208 8.36151 5.76837 8.42328C5.61466 8.48504 5.47476 8.57675 5.3568 8.69305C5.23884 8.80936 5.14517 8.94795 5.08123 9.10077C5.0173 9.25359 4.98438 9.4176 4.98438 9.58325C4.98438 9.74891 5.0173 9.91291 5.08123 10.0657C5.14517 10.2186 5.23884 10.3571 5.3568 10.4735C5.47476 10.5898 5.61466 10.6815 5.76837 10.7432C5.92208 10.805 6.08654 10.8356 6.25218 10.8333H8.33551V32.0833C8.33551 34.5997 10.4024 36.6666 12.9188 36.6666H27.0855C29.602 36.6666 31.6688 34.5997 31.6688 32.0833V10.8333H33.7522C33.9178 10.8356 34.0823 10.805 34.236 10.7432C34.3897 10.6815 34.5296 10.5898 34.6476 10.4735C34.7655 10.3571 34.8592 10.2186 34.9231 10.0657C34.9871 9.91291 35.02 9.74891 35.02 9.58325C35.02 9.4176 34.9871 9.25359 34.9231 9.10077C34.8592 8.94795 34.7655 8.80936 34.6476 8.69305C34.5296 8.57675 34.3897 8.48504 34.236 8.42328C34.0823 8.36151 33.9178 8.33091 33.7522 8.33325H30.6239C30.4897 8.31121 30.3528 8.31121 30.2186 8.33325H25.0022C25.0022 5.5867 22.7487 3.33325 20.0022 3.33325ZM20.0022 5.83325C21.3973 5.83325 22.5022 6.93814 22.5022 8.33325H17.5022C17.5022 6.93814 18.6071 5.83325 20.0022 5.83325ZM10.8355 10.8333H29.1688V32.0833C29.1688 33.2484 28.2507 34.1666 27.0855 34.1666H12.9188C11.7537 34.1666 10.8355 33.2484 10.8355 32.0833V10.8333ZM17.066 14.982C16.7347 14.9872 16.4191 15.1236 16.1884 15.3614C15.9577 15.5991 15.8308 15.9187 15.8355 16.2499V28.7499C15.8332 28.9156 15.8638 29.08 15.9255 29.2337C15.9873 29.3874 16.079 29.5273 16.1953 29.6453C16.3116 29.7633 16.4502 29.8569 16.603 29.9209C16.7558 29.9848 16.9199 30.0177 17.0855 30.0177C17.2512 30.0177 17.4152 29.9848 17.568 29.9209C17.7208 29.8569 17.8594 29.7633 17.9757 29.6453C18.092 29.5273 18.1837 29.3874 18.2455 29.2337C18.3073 29.08 18.3379 28.9156 18.3355 28.7499V16.2499C18.3379 16.0826 18.3067 15.9165 18.2437 15.7615C18.1808 15.6065 18.0873 15.4657 17.9689 15.3474C17.8505 15.2292 17.7096 15.1359 17.5545 15.0732C17.3994 15.0104 17.2333 14.9794 17.066 14.982ZM22.8993 14.982C22.5681 14.9872 22.2524 15.1236 22.0217 15.3614C21.791 15.5991 21.6641 15.9187 21.6688 16.2499V28.7499C21.6665 28.9156 21.6971 29.08 21.7589 29.2337C21.8206 29.3874 21.9123 29.5273 22.0286 29.6453C22.145 29.7633 22.2835 29.8569 22.4364 29.9209C22.5892 29.9848 22.7532 30.0177 22.9188 30.0177C23.0845 30.0177 23.2485 29.9848 23.4013 29.9209C23.5541 29.8569 23.6927 29.7633 23.809 29.6453C23.9253 29.5273 24.017 29.3874 24.0788 29.2337C24.1406 29.08 24.1712 28.9156 24.1688 28.7499V16.2499C24.1712 16.0826 24.14 15.9165 24.0771 15.7615C24.0141 15.6065 23.9206 15.4657 23.8023 15.3474C23.6839 15.2292 23.5429 15.1359 23.3878 15.0732C23.2327 15.0104 23.0666 14.9794 22.8993 14.982Z" fill="#0086C9"/>
</svg>
