<svg width="24" height="24" viewBox="0 0 24 24" fill="none" xmlns="http://www.w3.org/2000/svg">
<path d="M9.54429 17.5871C9.41096 17.5871 9.28596 17.5663 9.16929 17.5246C9.05263 17.4829 8.94429 17.4121 8.84429 17.3121L4.54429 13.0121C4.36096 12.8288 4.27346 12.5913 4.28179 12.2996C4.29013 12.0079 4.38596 11.7704 4.56929 11.5871C4.75263 11.4038 4.98596 11.3121 5.26929 11.3121C5.55263 11.3121 5.78596 11.4038 5.96929 11.5871L9.54429 15.1621L18.0193 6.68711C18.2026 6.50378 18.4401 6.41211 18.7318 6.41211C19.0235 6.41211 19.261 6.50378 19.4443 6.68711C19.6276 6.87044 19.7193 7.10794 19.7193 7.39961C19.7193 7.69128 19.6276 7.92878 19.4443 8.11211L10.2443 17.3121C10.1443 17.4121 10.036 17.4829 9.91929 17.5246C9.80263 17.5663 9.67763 17.5871 9.54429 17.5871Z" fill="#22AB68"/>
</svg>
