<svg width="24" height="24" viewBox="0 0 24 24" fill="none" xmlns="http://www.w3.org/2000/svg">
<rect x="0.375" y="0.375" width="23.25" height="23.25" rx="11.625" fill="white"/>
<path d="M11.7875 12.9875L9.3375 15.4375C9.24583 15.5292 9.12917 15.575 8.9875 15.575C8.84583 15.575 8.72917 15.5292 8.6375 15.4375C8.54583 15.3458 8.5 15.2292 8.5 15.0875C8.5 14.9458 8.54583 14.8292 8.6375 14.7375L11.0875 12.2875L8.6375 9.8375C8.54583 9.74583 8.5 9.62917 8.5 9.4875C8.5 9.34583 8.54583 9.22917 8.6375 9.1375C8.72917 9.04583 8.84583 9 8.9875 9C9.12917 9 9.24583 9.04583 9.3375 9.1375L11.7875 11.5875L14.2375 9.1375C14.3292 9.04583 14.4458 9 14.5875 9C14.7292 9 14.8458 9.04583 14.9375 9.1375C15.0292 9.22917 15.075 9.34583 15.075 9.4875C15.075 9.62917 15.0292 9.74583 14.9375 9.8375L12.4875 12.2875L14.9375 14.7375C15.0292 14.8292 15.075 14.9458 15.075 15.0875C15.075 15.2292 15.0292 15.3458 14.9375 15.4375C14.8458 15.5292 14.7292 15.575 14.5875 15.575C14.4458 15.575 14.3292 15.5292 14.2375 15.4375L11.7875 12.9875Z" fill="#667085"/>
<rect x="0.375" y="0.375" width="23.25" height="23.25" rx="11.625" stroke="#E4E7EC" stroke-width="0.75"/>
</svg>
